<?xml version="1.0" encoding="UTF-8"?>
<svg width="138px" height="59px" viewBox="0 0 138 59" version="1.1" xmlns="http://www.w3.org/2000/svg" xmlns:xlink="http://www.w3.org/1999/xlink">
    <defs>
        <polygon id="path-1" points="31.672 34.2506 31.672 0.0596 0.4996 0.0596 0.4996 34.2506"></polygon>
    </defs>
    <g id="Page-1" stroke="none" stroke-width="1" fill="none" fill-rule="evenodd">
        <g id="01_Homepage" transform="translate(-28.000000, -30.000000)">
            <g id="Page-1" transform="translate(28.000000, 30.000000)">
                <polygon id="Fill-1" fill="#FEFEFE" points="27.189 12.4755 20.813 9.1225 24.089 30.3435 14.06 20.3155 11.732 25.1195 1.612 23.5805 4.542 34.9385 0.564 37.9175 17.638 51.5945 15.716 57.9015 33.962 54.7215 34.719 50.3175 33.899 50.1695 30.25 50.8085 30.632 49.5455 27.22 46.8095 28.012 46.2175 27.429 43.9455 29.452 44.2505 29.917 43.2905 31.923 45.2975 31.269 41.0515 32.545 41.7215 33.946 39.3635 35.351 41.7215 36.284 41.2105 41.222 12.4875 34.203 0.6775"></polygon>
                <g id="Group-13" transform="translate(0.000000, 0.338600)">
                    <polygon id="Stroke-2" stroke="#FEFEFE" stroke-width="0.692" points="34.2031 0.3384 27.1891 12.1364 20.8121 8.7834 24.0891 30.0054 14.0601 19.9764 11.7331 24.7804 1.6111 23.2424 4.5421 34.5994 0.5641 37.5784 17.6381 51.2564 15.7161 57.5624 33.9631 54.3824 34.7191 49.9794 33.8981 49.8314 30.2501 50.4704 30.6321 49.2064 27.2191 46.4714 28.0111 45.8794 27.4291 43.6064 29.4521 43.9124 29.9171 42.9514 31.9231 44.9594 31.2691 40.7134 32.5451 41.3834 33.9461 39.0254 35.3511 41.3834 36.2841 40.8724 41.2211 12.1484"></polygon>
                    <path d="M125.7829,49.2217 C125.7829,48.3377 126.4989,47.6847 127.3459,47.6847 C128.1879,47.6847 128.9029,48.3377 128.9029,49.2217 C128.9029,50.1137 128.1879,50.7657 127.3459,50.7657 C126.4989,50.7657 125.7829,50.1137 125.7829,49.2217 L125.7829,49.2217 Z M127.3459,50.5107 C128.0449,50.5107 128.5949,49.9637 128.5949,49.2217 C128.5949,48.4937 128.0449,47.9437 127.3459,47.9437 C126.6429,47.9437 126.0909,48.4937 126.0909,49.2217 C126.0909,49.9637 126.6429,50.5107 127.3459,50.5107 L127.3459,50.5107 Z M127.0199,50.1137 L126.7529,50.1137 L126.7529,48.3377 L127.4289,48.3377 C127.8479,48.3377 128.0549,48.4937 128.0549,48.8437 C128.0549,49.1597 127.8579,49.2987 127.5959,49.3307 L128.1029,50.1137 L127.7969,50.1137 L127.3289,49.3437 L127.0199,49.3437 L127.0199,50.1137 Z M127.3439,49.1177 C127.5729,49.1177 127.7769,49.0987 127.7769,48.8267 C127.7769,48.6067 127.5749,48.5647 127.3879,48.5647 L127.0199,48.5647 L127.0199,49.1177 L127.3439,49.1177 Z" id="Fill-4" fill="#FEFEFE"></path>
                    <path d="M48.8581,16.2045 L49.0331,16.0595 C51.4591,16.1555 53.7841,16.3015 56.1311,16.3015 C64.0061,16.3015 70.2471,16.1555 73.4401,16.0595 L73.6911,16.3015 C72.9981,18.8475 72.3451,21.4395 71.7751,23.8375 L71.6041,23.9835 L70.1881,23.9835 L70.0651,23.8375 C70.2381,22.8595 70.7811,19.7765 70.4071,19.3845 C69.9981,18.9435 65.9491,18.6015 63.4041,18.6015 C61.3991,18.6015 59.6121,18.7515 58.6261,18.7975 C57.6211,23.1025 56.8791,27.3115 56.1381,31.5165 C57.9881,31.5645 59.9831,31.6155 61.2551,31.6155 C63.3591,31.6155 65.0501,31.4665 65.4381,30.9275 C66.0191,30.1455 66.5321,28.3375 66.6681,27.5545 L66.8401,27.4085 L68.1131,27.4085 L68.2331,27.5545 C67.8981,29.4635 67.4531,31.4165 67.1091,33.3745 C66.8771,34.6955 66.6311,36.6545 66.3271,38.3645 L66.1561,38.5125 L64.8851,38.5125 L64.7621,38.3645 C64.8911,37.6305 64.8861,35.7235 64.6981,34.8425 C64.5661,34.2065 62.9951,33.9625 60.0101,33.9625 C58.3481,33.9625 57.0651,34.0135 55.6891,34.0605 C53.4121,46.9765 53.4831,47.4155 53.9331,47.9045 C54.3061,48.2935 55.7281,48.5395 57.5891,48.5395 L57.7101,48.6865 L57.4581,50.1055 L57.2881,50.2515 C54.8581,50.1555 52.5361,50.0075 50.1851,50.0075 C47.8391,50.0075 45.4651,50.1555 43.0021,50.2515 L42.8811,50.1055 L43.1321,48.6865 L43.3031,48.5395 C45.1631,48.5395 46.6721,48.2935 47.1831,47.9045 C47.8051,47.4155 48.0331,46.9765 50.0311,35.6255 L50.9031,30.6845 C52.9061,19.3365 52.8351,18.8935 52.3811,18.4055 C52.0131,18.0135 50.5891,17.7705 48.7291,17.7705 L48.6071,17.6235 L48.8581,16.2045 Z" id="Fill-6" fill="#FEFEFE"></path>
                    <path d="M101.2984,45.655 C100.7414,46.583 100.2354,47.509 99.7284,48.442 C96.2844,49.958 92.4494,50.887 87.9974,50.887 C78.3594,50.887 70.1524,45.017 72.1884,33.474 C74.1194,22.516 82.7554,15.422 94.9844,15.422 C99.0454,15.422 104.0424,16.498 106.0164,17.234 L106.2494,17.576 C105.2024,19.631 104.5824,23.187 104.4184,24.408 L104.2434,24.555 L102.6784,24.555 L102.5564,24.408 C102.7654,23.227 102.8654,22.168 102.6814,20.997 C102.6664,20.891 102.5934,20.847 102.5984,20.805 C101.6724,19.385 98.2894,17.77 93.9354,17.77 C84.7894,17.77 79.4514,25.012 78.2614,31.76 C76.6914,40.663 80.5424,47.954 91.0604,47.954 C93.9444,47.954 97.7054,47.171 100.7704,45.312 L101.2984,45.655 Z" id="Fill-8" fill="#FEFEFE"></path>
                    <g id="Group-12" transform="translate(106.000000, 16.000000)">
                        <mask id="mask-2" fill="white">
                            <use xlink:href="#path-1"></use>
                        </mask>
                        <g id="Clip-11"></g>
                        <path d="M3.9296,32.6866 L4.1036,32.5396 C5.9616,32.5396 7.4726,32.2936 7.9786,31.9046 C8.6066,31.4156 8.8306,30.9746 10.8316,19.6266 C11.4516,16.1016 12.2066,10.7216 13.4976,2.8456 C11.5006,2.7976 10.0316,2.7976 8.4686,2.7976 C5.9236,2.7976 4.9776,2.8966 4.5546,3.3366 C4.1456,3.7296 3.3676,4.1546 2.3666,7.8746 L2.1386,8.0686 L0.6216,8.0686 L0.4996,7.9216 C1.3836,4.7576 1.8096,2.2096 2.2226,0.2046 L2.3936,0.0596 C6.9686,0.2046 12.5766,0.3016 16.9286,0.3016 C21.2826,0.3016 26.9256,0.2046 31.5516,0.0596 L31.6726,0.2046 C31.0586,2.0136 30.6536,4.3146 30.0236,7.8846 L29.8526,8.0326 L28.3346,8.0326 L28.1756,7.8376 C28.4856,4.1186 28.5056,3.7296 28.2336,3.3366 C27.9686,2.8966 27.0596,2.7976 24.5116,2.7976 C22.9466,2.7976 21.4816,2.7976 19.4656,2.8456 C17.9786,10.7216 16.8316,16.1016 16.2126,19.6266 C14.2106,30.9746 14.2806,31.4156 14.7326,31.9046 C15.1036,32.2936 16.5266,32.5396 18.3846,32.5396 L18.5086,32.6866 L18.2566,34.1056 L18.0836,34.2506 C15.6556,34.1556 13.3316,34.0076 10.9866,34.0076 C8.6406,34.0076 6.2656,34.1556 3.8006,34.2506 L3.6796,34.1056 L3.9296,32.6866 Z" id="Fill-10" fill="#FEFEFE" mask="url(#mask-2)"></path>
                    </g>
                </g>
            </g>
        </g>
    </g>
</svg>